Patient4_TMGait_0pt6_02_right_20_EMG.mot
version=1
nRows=33
nColumns=33
inDegrees=no
endheader
time	1LAddLong	2LGlutMax	3LGlutMed	4LIliopsoas	5LSemiMemb	6LBicFemLong	7LRecFem	8LVastMed	9LVastLat	10LGasMed	11LTibAnt	12lTibPost	13LPeroneusLong	14LSol	15LExtDigLong	16LFlexDigLong	17RAddLong	18RGlutMax	19RGlutMed	20RIliopsoas	21RSemiMemb	22RBicFemLong	23RRecFem	24RVastMed	25RVastLat	26RGasMed	27RTibAnt	28RTibPost	29RPeroneusLong	30RSol	31RExtDigLong	32RFlexDigLong
25.268	0.020294	-0.18417	-0.015869	0.041046	0.010529	0.034943	0.074921	-0.008392	0.010223	-0.48859	-0.03479	0.008698	0.20172	-0.029297	0.010834	0.000305	0.062408	-0.15015	-0.22507	0.001984	-0.20538	-0.12192	0.042419	-0.087585	-0.010529	-0.006409	0.60867	-0.006409	0.076447	-0.027618	0.009766	-0.00412
25.269	0.015411	-0.18494	-0.038147	0.012512	0.009155	0.048218	0.11292	-0.002441	0.003052	-0.82214	0.07843	0.002136	-0.079041	-0.032959	0.10056	0.006104	0.076904	-0.20798	-0.25009	-0.11414	-0.39917	-0.068665	0.041351	-0.18326	-0.018768	-0.019531	0.74646	-0.008087	0.055847	0.037231	-0.003204	-0.005951
25.27	-0.00061	-0.17334	-0.017548	-0.003967	0.01358	0.062408	0.14694	-0.007324	0.010834	-0.64499	0.088654	0.013885	0.031433	0.016632	0.17197	0.003662	0.057373	-0.21088	-0.25803	-0.061493	-0.37537	0.061951	0.082855	-0.19043	-0.012512	-0.033875	0.66513	-0.011902	-0.034332	0.059814	-0.005341	-0.007324
25.271	0.010223	-0.16556	-0.027618	-0.00351	0.016937	0.068512	0.14267	0.000458	-0.014954	-0.36194	0.14648	0.006104	0.084229	0.08316	0.12726	0.006714	-0.012512	-0.18951	-0.25681	0.13336	-0.41977	0.29312	0.054169	-0.12146	0.011444	-0.027313	0.26627	-0.010681	-0.1329	0.018616	-0.00824	-0.00351
25.272	0.014038	-0.14236	-0.029602	-0.012207	0.026245	0.056	0.061035	0.02121	-0.029907	-0.24353	0.10544	0.017853	0.19287	0.23926	-0.049591	-0.00412	-0.061035	-0.085754	-0.27527	0.12833	0.21851	0.37369	0.037689	-0.00473	0.027008	-0.026703	-0.48569	-0.009308	-0.09903	0.012054	-0.00412	-0.002594
25.273	0.009308	-0.12802	-0.021667	-0.002441	0.022125	0.014191	0.023193	0.001831	0.045471	-0.15793	0.22171	0.000458	0.064697	0.31143	-0.04303	-0.006256	-0.05188	-0.04776	-0.16892	0.090179	0.41779	0.22125	-0.020142	0.07019	0.026398	-0.029602	-0.80795	-0.008392	-0.1059	-0.025024	-0.001831	-0.002899
25.274	0.004578	-0.10895	-0.023041	-0.011444	0.012817	0.037231	0.037537	0.002289	0.11887	-0.073242	0.1767	0.000763	0.026703	0.14984	0.17807	0.003815	-0.036011	-0.041199	-0.065613	0.069427	0.26535	-0.1387	-0.023193	0.034485	0.018158	-0.028839	-0.41351	-0.010071	-0.043335	-0.021515	0.000458	-0.005188
25.275	0.005188	-0.13641	0.046539	-0.022583	0.017242	0.012054	0.067444	0.001831	0.063782	0.010223	-0.040588	-0.001984	0.20126	0.054169	-0.19394	0.001221	-0.01236	-0.066376	-0.014343	0.01236	0.19867	-0.17242	-0.052338	-0.04776	0.007629	-0.024109	-0.000763	-0.01297	0.19821	-0.036011	-0.000153	-0.006561
25.276	0.003662	-0.099792	0.049438	-0.001526	0.01297	0.020447	0.075531	0.00473	0.01297	0.009613	-0.075378	0.003204	0.60242	0.13321	-0.038605	0.002594	0.007629	-0.010223	-0.054626	-0.055389	0.16769	-0.21042	-0.020447	-0.10208	-0.023804	-0.019989	-0.049896	-0.00824	0.24857	-0.048523	-0.001678	-0.006714
25.277	-0.002441	-0.10498	0.021667	0.00824	0.008392	0.021057	0.058289	0.001678	0.001831	-0.0354	0.031586	0.001678	0.18509	0.18143	-0.58105	0.001831	0.036011	-0.032654	-0.082397	0.005493	0.14862	-0.19165	0.030823	-0.11246	-0.008698	-0.022583	-0.14984	-0.009308	0.23209	-0.047302	0.003662	-0.005951
25.278	0.011749	-0.12161	-0.02533	0.000153	0.006104	0.030365	-0.003815	-0.002441	0.083008	-0.075989	0.031128	0.011292	-0.21332	0.22614	-0.37628	-0.005798	0.052032	-0.025787	-0.065613	0.061646	0.069733	-0.16251	0.059357	-0.12375	-0.007935	-0.031586	-0.018158	-0.007935	0.086975	-0.040436	0.000916	-0.008698
25.279	0.010986	-0.13641	-0.060272	-0.028534	0.005646	0.037994	0.036163	0.000153	0.075989	-0.031128	-0.051575	0.000916	-0.16449	-0.048065	0.23834	-0.009766	0.01709	-0.010834	0.002441	0.010376	0.048065	-0.048218	0.038757	-0.068359	-0.000153	-0.032806	0.18265	-0.006714	-0.22858	-0.043945	0.000763	-0.01358
25.28	0.010071	-0.11063	0.023956	-0.021667	0.009308	0.037537	0.05661	-0.001221	0.029602	-0.031281	0.025482	0.003967	-0.3154	0.008698	0.19501	-0.00824	-0.04364	0.068512	-0.040741	-0.021515	-0.065918	0.054779	0.071259	-0.11551	-0.002136	-0.032043	-0.002594	-0.006561	-0.1091	-0.024261	-0.001221	-0.009918
25.281	0.004425	-0.074921	0.059967	-0.014343	0.000763	0.049286	0.053101	-0.004425	0.011139	-0.13428	-0.055389	-0.004425	0.14755	0.20462	0.55801	0.007629	-0.087585	0.001221	0.02121	-0.024109	-0.16312	-0.088196	0.068817	-0.0914	-0.006561	-0.030975	-0.076294	-0.00824	-0.27878	0.013885	-0.000458	-0.016937
25.282	-0.006256	-0.07843	-0.03418	0.006866	0.006256	0.024567	0.068665	-0.023346	0.003052	-0.14847	-0.19791	0.007477	0.38742	0.022583	-0.52856	0.005798	-0.083466	-0.021057	-0.1091	-0.014954	-0.086823	-0.047607	0.10956	-0.039673	0.003815	-0.036469	-0.024109	-0.006256	-0.31998	-0.030518	-0.000763	-0.014648
25.283	0.007477	-0.088196	-0.071411	0.003204	0.005646	-0.016785	0.086823	-0.023041	-0.010834	-0.033417	-0.1651	0.000916	0.2681	-0.23529	-0.58777	-0.013885	-0.054779	-0.056	-0.039215	-0.019531	-0.002899	0.11337	0.10788	-0.042725	0.014038	-0.040283	-0.058746	-0.013123	0.48966	-0.077515	-0.000305	-0.003662
25.284	0.009155	-0.10712	-0.046692	0.010529	0.00824	-0.012512	0.075073	-0.004578	-0.010376	0.016022	0.030975	0.00473	0.43945	-0.14801	-0.22522	-0.02182	-0.018616	-0.009766	0.26855	-0.067139	0.01358	0.17181	0.085754	-0.10284	0.00412	-0.046997	-0.030518	-0.007629	0.74539	-0.049591	-0.004578	-0.005035
25.285	0.006866	-0.045776	0.002441	0.010071	0.010529	-0.03006	0.096283	-0.000916	0.016632	0.018158	0.082703	0.009613	-0.12207	-0.2214	-0.021973	0.00061	-0.005951	0.035095	0.46783	-0.046844	-0.009613	0.23193	0.06485	-0.12863	0.002747	-0.041809	0.034027	-0.007629	0.11459	-0.010681	-0.003052	-0.00061
25.286	0.002747	-0.063782	0.070496	0.022888	0.005951	-0.12131	0.10849	-0.004883	0.002441	0.078278	-0.059967	-0.000916	-0.68985	-0.32989	-0.072937	-0.006561	-0.007629	0.075226	0.27557	-0.041504	-0.023956	0.26855	0.064545	-0.1178	0.001068	-0.01297	-0.005188	-0.006561	0.12543	-0.038757	-0.00061	-0.00412
25.287	-0.000763	-0.068817	0.015717	0.033112	-0.012512	-0.18463	0.1355	-0.007172	-0.004425	0.16419	-0.074158	0.011139	-0.48859	-0.354	-0.049896	-0.011139	0.010986	-0.010376	0.090637	-0.059509	-0.07843	0.03952	0.089417	-0.11643	-0.00824	-0.011597	0.022888	-0.00824	0.25925	-0.029907	-0.001373	-0.007019
25.288	0.000916	-0.10208	0.058136	0.019836	-0.026093	-0.13245	0.17059	-0.005951	-0.044403	0.2182	-0.015717	-0.002747	-0.2623	-0.31189	0.018005	-0.004883	0.021057	-0.079803	-0.025635	-0.013733	-0.076904	-0.090485	0.071259	-0.1767	-0.029449	-0.028381	0.095673	-0.00824	0.36453	-0.053406	-0.002136	-0.006104
25.289	0.013123	-0.10742	0.001526	0.013733	0.003815	-0.097656	0.21027	0	-0.082245	0.16678	-0.007782	-0.007935	-0.12131	-0.17425	0.093689	-0.006256	0.019226	-0.065002	-0.32425	-0.11246	-0.1268	-0.14374	0.033875	-0.16632	-0.011292	-0.042419	0.19638	-0.008698	0.28778	-0.084229	-0.002441	-0.006714
25.29	0.012054	-0.088043	-0.017853	-0.002747	0.071564	-0.060577	0.1947	-0.003052	-0.10864	0.095825	0.010529	-0.00824	-0.2327	-0.21423	0.081177	-0.010071	0.018768	0.008545	-0.56305	-0.094452	-0.19577	-0.16205	-0.027161	-0.18539	-0.038605	-0.041809	0.16571	-0.004883	-0.29526	-0.12177	-0.002747	-0.005035
25.291	0.014801	-0.084839	0.02655	0.00061	0.097656	0.050964	0.15884	0.007172	-0.083771	0.001526	-0.045624	0.002441	-0.121	-0.24719	0.22537	0.000763	0.009766	-0.031891	-0.59448	-0.072174	0.027924	-0.21255	-0.093842	-0.22064	-0.024109	-0.053711	0.018311	-0.007935	-0.40543	-0.14114	-0.002747	-0.002747
25.292	0.000763	-0.09201	0.046082	0.015106	0.04837	0.11414	0.16281	0.024414	-0.068817	-0.33691	-0.071716	-0.002441	-0.014496	-0.25604	0.27802	0.018158	0.010681	0.009918	-0.75699	-0.021362	0.19119	-0.2533	-0.10086	-0.18219	-0.01236	-0.039368	-0.1471	-0.009613	0.46524	-0.099335	-0.001068	-0.002441
25.293	0.001068	-0.072021	0.037231	0.011597	0.039978	0.078125	0.15869	0.026855	-0.08728	-0.090332	-0.057526	0.007935	0.15717	-0.39581	0.22522	0.018616	0.007172	-0.000916	-0.61249	0.061188	0.09613	-0.26977	-0.097198	-0.25146	0.003052	-0.036621	-0.088196	-0.008545	0.65094	-0.012512	-0.003052	-0.001068
25.294	0.007172	-0.11353	-0.009003	0.007477	0.039215	0.084839	0.14999	0.024109	-0.045776	0.29098	-0.045013	0.000305	0.27252	-0.51483	0.14969	0.023041	0.006409	-0.10178	0.40436	0.15289	-0.11093	-0.18951	-0.092163	-0.12909	0.021667	-0.021057	0.000916	-0.017242	0.21957	0.006714	-0.002594	-0.002289
25.295	0.015259	-0.06897	-0.033569	0.006256	0.027771	0.065918	0.061035	0.019226	0.053558	0.48355	-0.042877	-0.003662	0.11856	-0.71472	0.11429	-0.007629	0.027161	-0.11643	0.76309	0.14679	-0.24506	-0.10284	-0.016479	-0.097046	0.042725	-0.028381	0.022278	-0.006866	-0.121	-0.040283	-0.001068	-0.002594
25.296	0.009155	-0.090485	-0.011444	0.029144	0.032501	0.063782	0.10696	0.013733	0.10574	0.20935	-0.009308	0.004425	0.15533	-0.68924	0.042572	0.006409	0.028229	-0.12238	0.50766	0.014801	-0.24292	0.1265	0.034332	-0.003815	0.1207	-0.033875	-0.021515	-0.010681	-0.073395	-0.012207	-0.002136	-0.003815
25.297	0.012512	-0.11093	0.066223	0.017853	0.032196	0.044098	0.013733	0.013275	0.021362	0.37491	0.00946	0.024872	0.000305	-0.32288	-0.018158	0.058289	0.010986	-0.10819	0.43961	-0.016785	0.11673	0.39795	0.08316	-0.002594	0.14008	-0.034637	-0.028839	-0.012817	-0.013428	-0.005341	-0.005798	-0.007782
25.298	0.001984	-0.096893	-0.000916	0.00885	0.038147	0.025482	-0.019073	0.002899	-0.055542	0.54932	0.001678	0.016479	-0.028076	-0.24033	-0.032196	0.099792	-0.015869	-0.069733	0.58075	0.019989	0.27268	0.40115	0.11215	0.06546	0.15076	-0.038147	0.16663	-0.001984	-0.45288	-0.01709	0.000305	-0.013275
25.299	0.007782	-0.10925	-0.012054	-0.014038	0.032043	0.025482	0.081787	-0.019989	-0.23544	0.3801	-0.00946	0.01358	-0.011292	-0.074921	-0.067902	-0.34821	0.006866	-0.090179	0.48981	0.1178	0.077209	0.19424	0.13458	0.073395	0.11536	-0.028687	0.26489	-0.009308	-0.41885	-0.11627	-0.002899	-0.007172
25.3	0.013428	-0.10117	-0.043488	-0.010986	0.019989	0.014954	0.12009	-0.009918	-0.224	-0.26413	0.017242	0.018463	-0.063019	0.056305	-0.06134	0.007172	0.05249	-0.025177	0.26733	0.23361	-0.089111	-0.072937	0.071716	-0.045929	0.062866	-0.035553	0.29205	-0.011444	-0.14267	-0.10086	-0.000153	-0.009918
